<?xml version="1.0" encoding="utf-8"?>
<?xml-stylesheet type="text/xsl" href="rss1.xsl"?>
<rss version="2.0" xmlns:atom="http://www.w3.org/2005/Atom" xmlns:content="http://purl.org/rss/1.0/modules/content/" xmlns:dc="http://purl.org/dc/elements/1.1/" xmlns:media="http://search.yahoo.com/mrss/">
<channel>
 <title>Getty</title>
 <link>http://www.gettyimg.com/</link>
 <atom:link href="http://www.gettyimg.com/" rel="self" type="application/rss+xml" />

 
                <item>
                <title><![CDATA[【Music Videos】Depeche Mode - Where's The Revolution (Spirit Version) VJ-RoGeRs Video Edit (1080p 5.1) (Clean)]]></title>
                <link><![CDATA[https://sharemania.us/threads/depeche-mode-wheres-the-revolution-spirit-version-vj-rogers-video-edit-1080p-5-1-clean.246569/]]></link>
                <description><![CDATA[<article>
<blockquote class="messageText SelectQuoteContainer ugc baseHtml">
<img src="https://i.ibb.co/PghcwBP/Depeche-Mode-Where-s-The-Revolution-Spirit-Version-VJ-Ro-Ge-Rs-Video-Edit-1080p-5-1-mp4-thumbs-2024.jpg" class="bbCodeImage LbImage" alt="[​IMG]" data-url="https://i.ibb.co/PghcwBP/Depeche-Mode-Where-s-The-Revolution-Spirit-Version-VJ-Ro-Ge-Rs-Video-Edit-1080p-5-1-mp4-thumbs-2024.jpg" style=""> <br>
<br>
<div class="ToggleTriggerAnchor bbCodeSpoilerContainer">
<button type="button" class="button bbCodeSpoilerButton ToggleTrigger Tooltip JsOnly" data-target="> .SpoilerTarget"><span>Spoiler: <span class="SpoilerTitle">MediaInfo</span></span></button>
<div class="SpoilerTarget bbCodeSpoilerText">Depeche Mode - Where's The Revolution (Spirit Version) VJ-RoGeRs Video Edit (1080p 5.1).mp4<br>
Format : MPEG-4<br>
Format profile : Base Media / Version 2<br>
Codec ID : mp42 (mp42/mp41)<br>
File size : 375 MiB<br>
Duration : 5 min 5 s<br>
Overall bit rate mode : Variable<br>
Overall bit rate : 10.3 Mb/s<br>
Frame rate : 25.000 FPS<br>
Encoded date : 2024-06-09 22:53:09 UTC<br>
Tagged date : 2024-06-09 22:53:28 UTC<br>
TIM : 00:00:00:00<br>
TSC : 25<br>
TSZ : 1<br>
<br>
Video<br>
ID : 1<br>
Format : AVC<br>
Format/Info : Advanced Video Codec<br>
Format profile : Main@L4.1<br>
Format settings : CABAC / 4 Ref Frames<br>
Format settings, CABAC : Yes<br>
Format settings, Reference : 4 frames<br>
Codec ID : avc1<br>
Codec ID/Info : Advanced Video Coding<br>
Duration : 5 min 5 s<br>
Bit rate : 10.0 Mb/s<br>
Width : 1 920 pixels<br>
Height : 1 080 pixels<br>
Display aspect ratio : 16:9<br>
Frame rate mode : Constant<br>
Frame rate : 25.000 FPS<br>
Color space : YUV<br>
Chroma subsampling : 4:2:0<br>
Bit depth : 8 bits<br>
Scan type : Progressive<br>
Bits/(Pixel*Frame) : 0.193<br>
Stream size : 364 MiB (97%)<br>
Language : English<br>
Encoded date : 2024-06-09 22:53:09 UTC<br>
Tagged date : 2024-06-09 22:53:09 UTC<br>
Color range : Limited<br>
Color primaries : BT.709<br>
Transfer characteristics : BT.709<br>
Matrix coefficients : BT.709<br>
Codec configuration box : avcC<br>
<br>
Audio<br>
ID : 2<br>
Format : AAC LC<br>
Format/Info : Advanced Audio Codec Low Complexity<br>
Codec ID : mp4a-40-2<br>
Duration : 5 min 5 s<br>
Source duration : 5 min 5 s<br>
Bit rate mode : Variable<br>
Bit rate : 317 kb/s<br>
Maximum bit rate : 513 kb/s<br>
Channel(s) : 6 channels<br>
Channel layout : C L R Ls Rs LFE<br>
Sampling rate : 48.0 kHz<br>
Frame rate : 46.875 FPS (1024 SPF)<br>
Compression mode : Lossy<br>
Stream size : 11.5 MiB (3%)<br>
Source stream size : 11.5 MiB (3%)<br>
Language : English<br>
Encoded date : 2024-06-09 22:53:09 UTC<br>
Tagged date : 2024-06-09 22:53:09 UTC</div>
</div><br>
<div class="bbCodeBlock bbCodeVfcHH HiddenContent">
<div class="attribution type">Hidden Content:</div>
<blockquote>You must reply before you can see the hidden data contained here.</blockquote>
</div>
<div class="messageTextEndMarker">&nbsp;</div>
</blockquote>
</article>]]></description>
                <author><![CDATA[DJ-RoGeRs-BS]]></author>
                </item>

                
                <item>
                <title><![CDATA[【HD Live Performances】HDTV - SBS Inkigayo (K-WAVE CONCERT) E1230 240609 NewJeans - How Sweet + Bubble Gum 1080i MPEG2]]></title>
                <link><![CDATA[https://sharemania.us/threads/sbs-inkigayo-k-wave-concert-e1230-240609-newjeans-how-sweet-bubble-gum-1080i-mpeg2.246570/]]></link>
                <description><![CDATA[<article>
<blockquote class="messageText SelectQuoteContainer ugc baseHtml">
240609.SBS.인기가요.NewJeans How Sweet+Bubble Gum.1080i.MPEG2.AC3.ts<br>
<br>
<div class="bbCodeBlock bbCodeVfcHH HiddenContent">
<div class="attribution type">Hidden Content:</div>
<blockquote>You must reply before you can see the hidden data contained here.</blockquote>
</div>
<div class="messageTextEndMarker">&nbsp;</div>
</blockquote>
</article>]]></description>
                <author><![CDATA[Sergiote12]]></author>
                </item>

                
                <item>
                <title><![CDATA[【HD Live Performances】HDTV - SBS Inkigayo (K-WAVE CONCERT) E1230 240609 Stray Kids - Lose My Breath + S-Class 1080i]]></title>
                <link><![CDATA[https://sharemania.us/threads/sbs-inkigayo-k-wave-concert-e1230-240609-stray-kids-lose-my-breath-s-class-1080i.246571/]]></link>
                <description><![CDATA[<article>
<blockquote class="messageText SelectQuoteContainer ugc baseHtml">
Thanks very much for taking the time to share this. Much appreciated my friend.
<div class="messageTextEndMarker">&nbsp;</div>
</blockquote>
</article>]]></description>
                <author><![CDATA[Sergiote12]]></author>
                </item>

                
                <item>
                <title><![CDATA[【HD Live Performances】HDTV - SBS Inkigayo (K-WAVE CONCERT) E1230 240609 aespa - Armageddon 1080i]]></title>
                <link><![CDATA[https://sharemania.us/threads/sbs-inkigayo-k-wave-concert-e1230-240609-aespa-armageddon-1080i.246573/]]></link>
                <description><![CDATA[<article>
<blockquote class="messageText SelectQuoteContainer ugc baseHtml">
240609 SBS K-WAVE CONCERT INKIGAYO Stray Kids - Lose My Breath + S-Class HDMI.1080i.H264.AC3.ts<br>
<br>
<div class="bbCodeBlock bbCodeVfcHH HiddenContent">
<div class="attribution type">Hidden Content:</div>
<blockquote>You must reply before you can see the hidden data contained here.</blockquote>
</div>
<div class="messageTextEndMarker">&nbsp;</div>
</blockquote>
</article>]]></description>
                <author><![CDATA[Sergiote12]]></author>
                </item>

                
                <item>
                <title><![CDATA[【Requests】[REQ AUD] - KAYTRANADA- TIMELESS DOLBY ATMOS]]></title>
                <link><![CDATA[https://sharemania.us/threads/kaytranada-timeless-dolby-atmos.246572/]]></link>
                <description><![CDATA[<article>
<blockquote class="messageText SelectQuoteContainer ugc baseHtml">
240609.SBS.인기가요.aespa Armageddon.1080i.MPEG2.AC3.ts<br>
<br>
<div class="bbCodeBlock bbCodeVfcHH HiddenContent">
<div class="attribution type">Hidden Content:</div>
<blockquote>You must reply before you can see the hidden data contained here.</blockquote>
</div>
<div class="messageTextEndMarker">&nbsp;</div>
</blockquote>
</article>]]></description>
                <author><![CDATA[mdi2332]]></author>
                </item>

                </channel></rss>